<svg xmlns="http://www.w3.org/2000/svg" xmlns:xlink="http://www.w3.org/1999/xlink" aria-hidden="true" role="img" class="logo" width="64px" height="64px" preserveAspectRatio="xMidYMid meet" viewBox="0 0 256 256"><path fill="#646CFF" d="M221.797 49.062L137.042 208.27c-1.636 3.093-4.923 4.468-7.88 3.13a6.698 6.698 0 0 1-3.33-3.898L85.41 86.096l-25.215 59.014a6.665 6.665 0 0 1-3.727 3.45c-2.958.91-6.214-.454-7.555-3.185L15.125 49.002c-1.815-3.633.947-7.944 5.003-7.944h41.08c2.42 0 4.608 1.432 5.643 3.66l30.468 71.35l56.315-114.136c1.128-2.286 3.468-3.71 5.998-3.71h46.853c4.022 0 6.767 4.23 4.311 7.84z"/><path fill="#747AFF" d="M181.69 38.083L131.96 138.235l-26.55-62.105l64.838-39.115c1.647-.992 3.694-1.003 5.315-.025c1.62.978 2.47 2.843 2.128 4.686z" opacity=".5"/></svg>
